<svg width="160" height="18" viewBox="0 0 160 18" fill="none" xmlns="http://www.w3.org/2000/svg">
<path d="M0 17.7135V0.307505H6.442C7.31181 0.288665 8.18165 0.3442 9.042 0.473505C9.79704 0.583053 10.5178 0.8609 11.151 1.28651C11.7448 1.71886 12.2164 2.29766 12.52 2.96651C12.8702 3.70875 13.0473 4.52083 13.038 5.34151C13.0738 6.72536 12.5778 8.0703 11.652 9.09951C10.726 10.1248 9.05533 10.6375 6.64 10.6375H2.26V17.7135H0ZM2.26 8.5835H6.675C7.77778 8.68839 8.88152 8.39347 9.785 7.75251C10.0989 7.45277 10.3438 7.08829 10.5027 6.68437C10.6616 6.28045 10.7306 5.84679 10.705 5.41351C10.7236 4.74892 10.5341 4.09513 10.163 3.54351C9.82556 3.04166 9.31977 2.67703 8.737 2.51551C8.04209 2.38437 7.33469 2.33138 6.628 2.35751H2.26V8.5835Z" fill="#333333"/>
<path d="M15.983 17.7135V0.307495H18.243V7.4575H27.124V0.307495H29.384V17.7135H27.124V9.51349H18.247V17.7135H15.987H15.983Z" fill="#333333"/>
<path d="M32.934 9.2355C32.7886 6.76486 33.607 4.33411 35.217 2.4545C35.967 1.64795 36.8814 1.01184 37.8984 0.58916C38.9154 0.166484 40.0113 -0.0328971 41.112 0.00449695C42.6127 -0.0161259 44.0895 0.382493 45.376 1.1555C46.6363 1.91676 47.6435 3.03354 48.271 4.3655C48.9555 5.82536 49.2976 7.42232 49.271 9.0345C49.2992 10.673 48.9402 12.295 48.223 13.7685C47.5798 15.1015 46.5432 16.2051 45.253 16.9305C43.9855 17.6434 42.5541 18.0135 41.1 18.0045C39.5795 18.0285 38.0839 17.6166 36.79 16.8175C35.5365 16.0405 34.5367 14.9149 33.913 13.5785C33.2635 12.2231 32.9288 10.7385 32.934 9.2355ZM35.264 9.2715C35.1622 11.0745 35.7564 12.8478 36.924 14.2255C37.4603 14.7981 38.1086 15.2543 38.8288 15.5656C39.5489 15.8769 40.3254 16.0367 41.1099 16.035C41.8944 16.0333 42.6702 15.8702 43.389 15.5558C44.1078 15.2414 44.7542 14.7824 45.288 14.2075C46.4691 12.7475 47.0574 10.8965 46.936 9.0225C46.9656 7.75106 46.7271 6.48765 46.236 5.3145C45.8132 4.31388 45.101 3.46245 44.1909 2.86946C43.2807 2.27648 42.2141 1.969 41.128 1.9865C40.3623 1.97581 39.6022 2.1189 38.8928 2.4073C38.1834 2.69571 37.5391 3.12355 36.998 3.6655C35.8393 4.78483 35.26 6.6535 35.26 9.2715H35.264Z" fill="#333333"/>
<path d="M56.049 17.7135V2.35749H50.422V0.307495H63.958V2.35749H58.308V17.7135H56.049Z" fill="#333333"/>
<path d="M65.159 9.2355C65.0136 6.76486 65.8319 4.33411 67.4419 2.4545C68.1919 1.64795 69.1063 1.01184 70.1233 0.58916C71.1404 0.166484 72.2363 -0.0328971 73.337 0.00449695C74.8377 -0.0160728 76.3144 0.382542 77.6009 1.1555C78.8613 1.91667 79.8686 3.03347 80.496 4.3655C81.1806 5.82533 81.5227 7.42231 81.496 9.0345C81.524 10.6731 81.1645 12.2951 80.447 13.7685C79.8039 15.1016 78.7673 16.2053 77.477 16.9305C76.2098 17.6432 74.7788 18.0133 73.325 18.0045C71.8058 18.0277 70.3117 17.6159 69.019 16.8175C67.7655 16.0405 66.7657 14.9149 66.142 13.5785C65.491 12.2235 65.155 10.7388 65.159 9.2355ZM67.4889 9.2715C67.3872 11.0745 67.9814 12.8478 69.149 14.2255C69.6852 14.7981 70.3336 15.2543 71.0538 15.5656C71.7739 15.8769 72.5504 16.0367 73.3349 16.035C74.1194 16.0333 74.8952 15.8702 75.614 15.5558C76.3328 15.2414 76.9792 14.7824 77.513 14.2075C78.694 12.7475 79.2824 10.8965 79.161 9.0225C79.1905 7.75106 78.952 6.48766 78.461 5.3145C78.0382 4.31388 77.326 3.46245 76.4158 2.86946C75.5057 2.27648 74.4391 1.969 73.353 1.9865C72.5872 1.97581 71.8271 2.1189 71.1177 2.4073C70.4083 2.69571 69.764 3.12355 69.223 3.6655C68.067 4.78483 67.4889 6.6535 67.4889 9.2715Z" fill="#333333"/>
<path d="M92.85 17.7135V0.307489H99.257C100.328 0.265849 101.397 0.445591 102.396 0.835488C103.167 1.17288 103.814 1.7414 104.248 2.46249C104.682 3.15129 104.914 3.94821 104.918 4.76249C104.918 5.50401 104.713 6.23108 104.324 6.86249C103.89 7.55332 103.268 8.10544 102.53 8.45349C103.476 8.7041 104.313 9.25897 104.912 10.0325C105.473 10.795 105.766 11.7219 105.745 12.6685C105.751 13.4552 105.578 14.233 105.238 14.9425C104.954 15.5739 104.525 16.1294 103.986 16.5635C103.426 16.9725 102.791 17.2653 102.116 17.4245C101.213 17.6355 100.288 17.7333 99.361 17.7155H92.85V17.7135ZM95.11 7.62149H98.803C99.527 7.65173 100.252 7.58446 100.958 7.42149C101.476 7.28636 101.934 6.98144 102.258 6.55549C102.562 6.10848 102.715 5.57582 102.695 5.03549C102.706 4.49847 102.565 3.96932 102.287 3.50949C102.022 3.07681 101.608 2.75652 101.122 2.60949C100.271 2.4099 99.3957 2.32813 98.522 2.36649H95.11V7.62149ZM95.11 15.6595H99.362C99.8761 15.6732 100.39 15.6454 100.9 15.5765C101.36 15.5028 101.801 15.3416 102.2 15.1015C102.567 14.86 102.865 14.5262 103.062 14.1335C103.294 13.6803 103.41 13.1766 103.4 12.6675C103.414 12.0667 103.243 11.4761 102.911 10.9755C102.585 10.4965 102.107 10.1412 101.554 9.96649C100.74 9.74249 99.8973 9.64435 99.054 9.67549H95.11V15.6595Z" fill="#333333"/>
<path d="M108.17 9.2355C108.025 6.76488 108.843 4.33416 110.453 2.4545C111.203 1.64795 112.117 1.01184 113.134 0.58916C114.151 0.166484 115.247 -0.0328971 116.348 0.00449695C117.849 -0.0160728 119.325 0.382542 120.612 1.1555C121.872 1.91667 122.88 3.03347 123.507 4.3655C124.192 5.82535 124.534 7.42231 124.507 9.0345C124.535 10.673 124.176 12.295 123.459 13.7685C122.816 15.1017 121.779 16.2053 120.488 16.9305C119.221 17.6432 117.79 18.0133 116.336 18.0045C114.815 18.0285 113.32 17.6166 112.026 16.8175C110.772 16.0405 109.772 14.9149 109.148 13.5785C108.499 12.2231 108.164 10.7384 108.17 9.2355ZM110.5 9.2715C110.398 11.0745 110.992 12.8478 112.16 14.2255C112.696 14.7981 113.345 15.2543 114.065 15.5656C114.785 15.8769 115.561 16.0367 116.346 16.035C117.13 16.0333 117.906 15.8702 118.625 15.5558C119.344 15.2414 119.99 14.7824 120.524 14.2075C121.705 12.7474 122.293 10.8965 122.172 9.0225C122.201 7.75107 121.963 6.48767 121.472 5.3145C121.049 4.31388 120.337 3.46245 119.427 2.86946C118.517 2.27648 117.45 1.969 116.364 1.9865C115.598 1.97581 114.838 2.1189 114.129 2.4073C113.419 2.69571 112.775 3.12355 112.234 3.6655C111.077 4.78483 110.499 6.6535 110.5 9.2715Z" fill="#333333"/>
<path d="M126.729 9.2355C126.584 6.76488 127.402 4.33416 129.012 2.4545C129.763 1.64767 130.678 1.01142 131.696 0.588747C132.714 0.166078 133.811 -0.0331614 134.912 0.00449643C136.413 -0.0159672 137.889 0.38264 139.176 1.1555C140.436 1.91681 141.444 3.03357 142.071 4.3655C142.756 5.82539 143.098 7.42232 143.071 9.0345C143.099 10.6731 142.74 12.2951 142.022 13.7685C141.379 15.1016 140.342 16.2053 139.052 16.9305C137.784 17.6438 136.351 18.014 134.896 18.0045C133.375 18.0286 131.879 17.6167 130.585 16.8175C129.331 16.0405 128.332 14.9149 127.708 13.5785C127.058 12.2232 126.724 10.7385 126.729 9.2355ZM129.059 9.2715C128.957 11.0745 129.551 12.8478 130.719 14.2255C131.255 14.7981 131.904 15.2543 132.624 15.5656C133.344 15.8769 134.12 16.0367 134.905 16.035C135.689 16.0333 136.465 15.8702 137.184 15.5558C137.903 15.2414 138.549 14.7824 139.083 14.2075C140.264 12.7475 140.852 10.8965 140.731 9.0225C140.761 7.75106 140.522 6.48766 140.031 5.3145C139.608 4.31396 138.896 3.4626 137.986 2.86963C137.076 2.27667 136.009 1.96914 134.923 1.9865C134.157 1.97594 133.398 2.1191 132.688 2.4075C131.979 2.6959 131.335 3.12367 130.794 3.6655C129.638 4.78483 129.06 6.6535 129.059 9.2715Z" fill="#333333"/>
<path d="M145.881 17.7135V0.307495H148.141V8.9395L156.622 0.307495H159.686L152.521 7.35749L160 17.7105H157.018L150.937 8.9005L148.137 11.6785V17.7095H145.877L145.881 17.7135Z" fill="#333333"/>
</svg>
